<svg width="74" height="12" viewBox="0 0 74 12" fill="none" xmlns="http://www.w3.org/2000/svg">
<path fill-rule="evenodd" clip-rule="evenodd" d="M15.4285 0H0V12H15.4285V0ZM2.57134 10.2857C2.27779 10.2857 1.99115 10.256 1.71419 10.1999V1.80008C1.89283 1.76409 2.07546 1.73856 2.26139 1.72517C2.28907 1.72307 2.31679 1.72182 2.3446 1.72056L2.40963 1.71763C2.46328 1.71554 2.51719 1.71429 2.57134 1.71429C4.93826 1.71429 6.85705 3.63323 6.85705 6C6.85705 8.36677 4.93826 10.2857 2.57134 10.2857ZM12.8571 10.2857C12.9168 10.2857 12.9764 10.2845 13.0356 10.2819C13.1339 10.2782 13.2314 10.2711 13.3279 10.2606C13.4585 10.246 13.5874 10.2259 13.7142 10.1999V1.80008C13.5564 1.76828 13.3955 1.74484 13.232 1.73061C13.1084 1.71973 12.9834 1.71429 12.8571 1.71429C10.4901 1.71429 8.57134 3.63323 8.57134 6C8.57134 8.36677 10.4901 10.2857 12.8571 10.2857Z" fill="#CBCBCB"/>
<path d="M29.6408 1.01486L25.5214 11.7531H23.3305L19.2111 1.01486H21.4945L24.4722 9.22286L27.4345 1.01486H29.6408Z" fill="#CBCBCB"/>
<path d="M33.6041 11.7531H31.5058V1.01486H33.6041V11.7531Z" fill="#CBCBCB"/>
<path d="M40.2804 12C39.0255 12 38.0021 11.712 37.2101 11.136C36.4284 10.56 35.9192 9.75771 35.6827 8.72914H37.7809C37.9147 9.16114 38.1975 9.51086 38.6295 9.77829C39.0718 10.0354 39.6118 10.164 40.2495 10.164C40.8564 10.164 41.3552 10.0509 41.7461 9.82457C42.1472 9.588 42.3478 9.24857 42.3478 8.80628C42.3478 8.54914 42.2912 8.328 42.1781 8.14286C42.0649 7.94743 41.8541 7.78286 41.5455 7.64914C41.2369 7.50514 40.7895 7.38686 40.2032 7.29429L38.9998 7.09371C38.0021 6.92914 37.2512 6.61029 36.7472 6.13714C36.2535 5.664 36.0067 4.98514 36.0067 4.10057C36.0067 3.42171 36.1867 2.83543 36.5467 2.34171C36.9169 1.83771 37.4107 1.452 38.0278 1.18457C38.6552 0.906857 39.3547 0.768 40.1261 0.768C41.2472 0.768 42.1884 1.03543 42.9495 1.57029C43.7107 2.09486 44.1787 2.86629 44.3535 3.88457H42.2552C42.1524 3.45257 41.9158 3.13371 41.5455 2.928C41.1752 2.712 40.7072 2.604 40.1415 2.604C39.5141 2.604 39.0204 2.72228 38.6604 2.95886C38.3004 3.18514 38.1204 3.504 38.1204 3.91543C38.1204 4.28571 38.2541 4.57371 38.5215 4.77943C38.7992 4.98514 39.3444 5.15486 40.1569 5.28857L41.3141 5.47371C43.4227 5.81314 44.4769 6.85714 44.4769 8.60571C44.4769 9.32571 44.2969 9.94286 43.9369 10.4571C43.5769 10.9611 43.0781 11.3469 42.4404 11.6143C41.8129 11.8714 41.0929 12 40.2804 12Z" fill="#CBCBCB"/>
<path d="M48.8502 11.7531H46.7519V1.01486H48.8502V11.7531Z" fill="#CBCBCB"/>
<path d="M56.5756 12C55.7836 12 55.0533 11.8611 54.3847 11.5834C53.7265 11.3057 53.1556 10.9149 52.6722 10.4109C52.1887 9.90686 51.8133 9.31543 51.5459 8.63657C51.2785 7.94743 51.1447 7.19657 51.1447 6.384C51.1447 5.57143 51.2785 4.82571 51.5459 4.14686C51.8133 3.45771 52.1887 2.86114 52.6722 2.35714C53.1556 1.85314 53.7265 1.46228 54.3847 1.18457C55.0533 0.906857 55.7836 0.768 56.5756 0.768C57.3676 0.768 58.0927 0.906857 58.751 1.18457C59.4196 1.46228 59.9956 1.85314 60.479 2.35714C60.9728 2.86114 61.3533 3.45771 61.6207 4.14686C61.8882 4.82571 62.0219 5.57143 62.0219 6.384C62.0219 7.19657 61.8882 7.94743 61.6207 8.63657C61.3533 9.31543 60.9728 9.90686 60.479 10.4109C59.9956 10.9149 59.4196 11.3057 58.751 11.5834C58.0927 11.8611 57.3676 12 56.5756 12ZM56.5756 10.1177C57.2236 10.1177 57.7945 9.96343 58.2882 9.65486C58.7922 9.336 59.183 8.89886 59.4607 8.34343C59.7487 7.77771 59.8927 7.12457 59.8927 6.384C59.8927 5.64343 59.7487 4.99543 59.4607 4.44C59.183 3.87429 58.7922 3.43714 58.2882 3.12857C57.7945 2.80971 57.2236 2.65029 56.5756 2.65029C55.9379 2.65029 55.367 2.80971 54.863 3.12857C54.3693 3.43714 53.9785 3.87429 53.6905 4.44C53.4128 4.99543 53.2739 5.64343 53.2739 6.384C53.2739 7.12457 53.4128 7.77771 53.6905 8.34343C53.9785 8.89886 54.3693 9.336 54.863 9.65486C55.367 9.96343 55.9379 10.1177 56.5756 10.1177Z" fill="#CBCBCB"/>
<path d="M64.3183 11.7531V1.01486H66.3549L71.6777 8.544V1.01486H73.7143V11.7531H71.6777L66.3549 4.224V11.7531H64.3183Z" fill="#CBCBCB"/>
</svg>
