<svg width="37" height="16" viewBox="0 0 37 16" fill="none" xmlns="http://www.w3.org/2000/svg">
<rect x="0.5" y="0.5" width="36" height="15" rx="3.5" stroke="#808080"/>
<path d="M7.49 12V4.344H8.535V7.512H12.902V4.344H13.947V12H12.902V8.447H8.535V12H7.49ZM15.9226 12V4.344H18.6836C19.3986 4.344 20.0366 4.498 20.6086 4.806C21.1696 5.125 21.6206 5.565 21.9506 6.137C22.2806 6.72 22.4456 7.391 22.4456 8.172C22.4456 8.953 22.2806 9.624 21.9506 10.196C21.6206 10.779 21.1696 11.219 20.6086 11.527C20.0366 11.846 19.3986 12 18.6836 12H15.9226ZM16.9676 11.065H18.6176C19.1236 11.065 19.5856 10.955 20.0036 10.724C20.4216 10.493 20.7516 10.163 21.0046 9.734C21.2576 9.305 21.3786 8.788 21.3786 8.172C21.3786 7.556 21.2576 7.028 21.0046 6.599C20.7516 6.17 20.4216 5.851 20.0036 5.62C19.5856 5.389 19.1236 5.279 18.6176 5.279H16.9676V11.065ZM23.9793 12V4.344H26.8613C27.8403 4.344 28.5773 4.553 29.0833 4.971C29.5783 5.389 29.8313 5.972 29.8313 6.709C29.8313 7.303 29.6773 7.787 29.3583 8.161C29.0393 8.546 28.6323 8.81 28.1373 8.964L30.1723 12H28.9293L27.0263 9.129H25.0243V12H23.9793ZM25.0243 8.194H26.7403C27.4333 8.194 27.9393 8.062 28.2693 7.798C28.5993 7.545 28.7643 7.171 28.7643 6.698C28.7643 6.225 28.5993 5.873 28.2693 5.631C27.9393 5.4 27.4333 5.279 26.7403 5.279H25.0243V8.194Z" fill="#E5E5E5"/>
</svg>
