<svg width="73" height="16" viewBox="0 0 73 16" fill="none" xmlns="http://www.w3.org/2000/svg">
<rect x="0.5" y="0.5" width="72" height="15" rx="3.5" stroke="#808080"/>
<path d="M10.581 12.165C9.888 12.165 9.294 12.022 8.821 11.736C8.348 11.461 7.985 11.065 7.743 10.548C7.501 10.031 7.38 9.426 7.38 8.733V4.344H8.425V8.645C8.425 9.426 8.601 10.053 8.953 10.515C9.294 10.977 9.844 11.208 10.581 11.208C11.318 11.208 11.868 10.977 12.22 10.515C12.561 10.053 12.737 9.426 12.737 8.645V4.344H13.782V8.733C13.782 9.426 13.661 10.031 13.419 10.548C13.177 11.065 12.814 11.461 12.341 11.736C11.868 12.022 11.274 12.165 10.581 12.165ZM15.4891 12V4.025H16.4681V12H15.4891ZM20.1449 12.044C19.6059 12.044 19.1989 11.89 18.9129 11.593C18.6269 11.296 18.4839 10.867 18.4839 10.295V7.248H17.4829V6.368H18.4839V4.575C18.8029 4.553 19.1329 4.487 19.4629 4.388V6.368H20.6949V7.248H19.4629V10.207C19.4629 10.515 19.5399 10.746 19.6939 10.911C19.8369 11.076 20.0459 11.164 20.3209 11.164H20.6949V12.044H20.1449ZM22.8597 9.151V12H21.8807V6.368H22.8377V7.369C23.0137 7.039 23.2447 6.786 23.5307 6.599C23.8167 6.423 24.1357 6.335 24.4877 6.335H24.6637V7.281H24.4657C24.1797 7.281 23.9157 7.347 23.6737 7.49C23.4207 7.633 23.2227 7.842 23.0797 8.117C22.9367 8.392 22.8597 8.744 22.8597 9.151ZM27.2014 12.154C26.6184 12.154 26.1564 12 25.8044 11.681C25.4524 11.373 25.2764 10.955 25.2764 10.416C25.2764 9.844 25.4854 9.393 25.9034 9.074C26.3104 8.755 26.9044 8.601 27.6634 8.601H28.9944V8.359C28.9944 7.908 28.8844 7.578 28.6534 7.38C28.4224 7.193 28.1034 7.094 27.6964 7.094C27.3554 7.094 27.0804 7.16 26.8604 7.292C26.6404 7.424 26.5084 7.589 26.4534 7.776H25.4634C25.5624 7.314 25.8044 6.94 26.2114 6.643C26.6074 6.357 27.1024 6.214 27.7074 6.214C28.4004 6.214 28.9614 6.39 29.3684 6.753C29.7754 7.116 29.9734 7.677 29.9734 8.436V12H29.0494V11.153C28.8514 11.494 28.5874 11.736 28.2464 11.901C27.9054 12.077 27.5644 12.154 27.2014 12.154ZM27.4214 11.296C27.6634 11.296 27.9054 11.241 28.1474 11.131C28.3894 11.021 28.5874 10.856 28.7524 10.636C28.9174 10.427 28.9944 10.152 28.9944 9.822V9.404H27.7294C27.2674 9.404 26.9044 9.481 26.6514 9.646C26.3984 9.811 26.2664 10.053 26.2664 10.372C26.2664 10.669 26.3764 10.9 26.5854 11.054C26.7944 11.219 27.0804 11.296 27.4214 11.296ZM34.3025 12V4.344H35.3475V7.512H39.7145V4.344H40.7595V12H39.7145V8.447H35.3475V12H34.3025ZM42.7351 12V4.344H45.4961C46.2111 4.344 46.8491 4.498 47.4211 4.806C47.9821 5.125 48.4331 5.565 48.7631 6.137C49.0931 6.72 49.2581 7.391 49.2581 8.172C49.2581 8.953 49.0931 9.624 48.7631 10.196C48.4331 10.779 47.9821 11.219 47.4211 11.527C46.8491 11.846 46.2111 12 45.4961 12H42.7351ZM43.7801 11.065H45.4301C45.9361 11.065 46.3981 10.955 46.8161 10.724C47.2341 10.493 47.5641 10.163 47.8171 9.734C48.0701 9.305 48.1911 8.788 48.1911 8.172C48.1911 7.556 48.0701 7.028 47.8171 6.599C47.5641 6.17 47.2341 5.851 46.8161 5.62C46.3981 5.389 45.9361 5.279 45.4301 5.279H43.7801V11.065ZM56.5601 12V10.108H52.6881V9.327L56.6151 4.344H57.5831V9.217H58.7821V10.108H57.5831V12H56.5601ZM53.8101 9.217H56.5601V5.73L53.8101 9.217ZM60.0945 12V4.344H61.1395V7.633L64.7145 4.344H66.0565L62.0195 8.029L66.2435 12H64.8135L61.1395 8.546V12H60.0945Z" fill="#E5E5E5"/>
</svg>
